<?xml version="1.0" encoding="UTF-8"?>
<!DOCTYPE svg PUBLIC "-//W3C//DTD SVG 1.1//EN" "http://www.w3.org/Graphics/SVG/1.1/DTD/svg11.dtd">
<!-- Creator: CorelDRAW -->
<svg xmlns="http://www.w3.org/2000/svg" xml:space="preserve" width="4.064mm" height="4.083mm" style="shape-rendering:geometricPrecision; text-rendering:geometricPrecision; image-rendering:optimizeQuality; fill-rule:evenodd; clip-rule:evenodd"
viewBox="0 0 2.33338 2.34428"
 xmlns:xlink="http://www.w3.org/1999/xlink">
 <defs>
  <style type="text/css">
   <![CDATA[
    .str0 {stroke:#C2C1C1;stroke-width:0.0574157}
    .fil16 {fill:none}
    .fil6 {fill:#100C08}
    .fil9 {fill:#16130A}
    .fil13 {fill:#261B05}
    .fil12 {fill:#312510}
    .fil10 {fill:#392C13}
    .fil15 {fill:#3D331B}
    .fil3 {fill:#3D3923}
    .fil14 {fill:#3E3621}
    .fil5 {fill:#453A22}
    .fil8 {fill:#55492D}
    .fil0 {fill:#594E31}
    .fil11 {fill:#626236}
    .fil4 {fill:#635B35}
    .fil7 {fill:#63623A}
    .fil1 {fill:#7B6C46}
    .fil2 {fill:#7D6D4A}
   ]]>
  </style>
 </defs>
 <g id="Warstwa_x0020_1">
  <metadata id="CorelCorpID_0Corel-Layer"/>
  <g id="_151524008">
   <g>
    <path id="_127702456" class="fil0" d="M0.628932 1.63509l0.0268131 0.00470809 0.0113109 0.00488034 0.378829 -0.00476551 0.0505833 -0.102315 -0.00953101 -0.00930135 -0.0373776 -0.00258371 -0.000172247 -0.0145836 -0.0188898 -0.0498943 0.00591382 -0.0113109 0.0265835 -0.00195213 0.00505258 -0.0202103 -0.0335308 -0.00413393 -0.00631573 -0.0165931 0.0374351 -0.0686692 0.0114257 0.00103348 0.00172247 0.0267557 0.0119999 -0.000172247 -0.0018373 0.260782 0.0294543 -0.00189472 0.0265261 0.0857217 0.028593 -0.000287079 0.00654539 0.0536263 -0.023196 0.00556933 0.0227366 0.00625831 -0.0119999 0.00643056 0.00821045 0.0460474 0.103004 -0.0555784 0.0134353 -0.00459326 0.00344494 -0.107195 -0.0103348 0.00189472 0.0136075 -0.0424302 -0.0273873 -0.0136075 -0.045301 -0.0069473 0.0273299 -0.024861 -0.0884776 -0.0249758 0.0194639 0.0018373 0.152726 -0.0296265 -0.0207845 -0.0217031 0.0481718 -0.0130334 -0.0209567 -0.00378944 0.0454733 -0.111387 -0.0103348 0.00350236 -0.0741811 -0.0549469 0.0121721 -0.0152726 -0.0753868 -0.0216457 0.00625831 -0.00528225c0.223462,-0.0245165 0.155195,-0.0401336 0.178505,-0.144745 0.0307174,-0.137913 -0.0315212,-0.0878461 -0.0551765,-0.108745 -0.0357126,-0.0315786 0.0895111,0.00516742 0.107942,-0.0376073 0.0215309,-0.0500091 0.0368035,-0.0198084 0.0286504,-0.063387 -0.00424876,-0.0227366 0.145491,-0.131597 -0.0667745,-0.134582l0.0796356 -0.019751 -0.0244591 -0.0107367 -0.0641908 0.00160764 -0.00258371 -0.00895685 0.12465 -0.0157319c0.0728606,-0.0568416 0.140094,-0.215596 0.141415,-0.302007 0.000344494,-0.0223921 0.0466216,-0.00143539 0.0760184,-0.0722864 0.00338753,-0.00809562 0.0215883,-0.0567267 0.0222773,-0.0577028 0.0911762,-0.131539 -0.0997311,-0.0550043 -0.0595401,-0.105817l0.000574157 0.00545449 0.114774 -0.00287079 0.01022 -0.00958843 0.0908891 -0.182008 -1.54954 0 -0.0494349 0.0411097 0.00763629 -0.00625831 0.0423728 0.0666597 -0.0372054 0.0121147 0.107884 0.0850901 0.0470235 -0.0146984 -0.0321528 0.0125166 -0.0144688 -0.00964584 -0.0713103 0.0203252 0.00832528 -0.00258371 -0.00895685 0.0706213 -0.0353107 -0.0010909c0.0741811,0.0784299 -0.089626,0.176496 0.14308,0.17707 0.0361145,0.0272725 -0.0591956,-0.00763629 -0.0838844,0.0561526 -0.0187749,0.0485163 -0.0281337,0.0839992 -0.045301,0.13487 -0.00895685,0.0265835 -0.00970326,0.0798079 0.0100478,0.0806117 0.194524,0.00815303 0.0484015,0.00459326 0.00999034,0.0477125 -0.085492,0.0958843 0.0570138,0.229835 0.00821045,0.259519 -0.00172247,0.00103348 -0.0268131,0.107023 -0.026239,0.112937 0.00384685,0.0396169 -0.0310619,0.0630425 0.00723438,0.0961713 0.033416,0.0289375 0.202965,0.0339901 0.0751572,0.0529947l0.000918652 -0.00643056 -0.0676931 -0.00235404 0.0133204 0.00671764 -0.0302581 0.0686118 0.0118276 0.0927264 -0.0138372 0.00430618 0.0345643 0.0637889 0.031349 0.0103922 0.0706213 0.00528225c-0.00200955,0.0114257 -0.123329,0.0105645 -0.102315,0.0321528 0.0222773,0.022794 0.0527651,0.0165357 -0.00453584,0.0478847 -0.0609755,0.0333011 -0.0478847,0.0687266 -0.043923,0.112248 0.0018373,0.0203826 0.0236553,0.1502 0.0196362,0.154161 -0.053167,0.0520186 0.0647075,0.190046 0.035081,0.223519 -0.0161338,0.0182008 -0.055521,0.175462 -0.0447843,0.194467l0.154965 0 -0.00878461 -0.324456 0.0124592 -0.00103348 0.00488034 -0.16863 0.0032727 -0.00579899 -0.0236553 0.000459326 0.00465067 -0.00740663 -0.0199233 -0.075961 0.000459326 -0.074296 -0.0137224 0.00287079 0.140611 -0.0194639z"/>
    <path id="_127705960" class="fil1" d="M2.25133 0.0091291l-0.300744 0 -0.0908891 0.182008 -0.01022 0.00958843 -0.114774 0.00287079 -0.000574157 -0.00545449c-0.040191,0.0508129 0.150716,-0.0257222 0.0595401,0.105817 -0.000688989,0.000976067 -0.0188898,0.0496072 -0.0222773,0.0577028 -0.0293969,0.070851 -0.0756739,0.0498943 -0.0760184,0.0722864 -0.00132056,0.0864107 -0.0685544,0.245165 -0.141415,0.302007l-0.12465 0.0157319 0.00258371 0.00895685 0.0641908 -0.00160764 0.0244591 0.0107367 -0.0796356 0.019751c0.212266,0.00298562 0.0625257,0.111846 0.0667745,0.134582 0.00815303,0.0435785 -0.00711955,0.0133779 -0.0286504,0.063387 -0.0184304,0.0427747 -0.143654,0.00602865 -0.107942,0.0376073 0.0236553,0.0208993 0.0858939,-0.0291672 0.0551765,0.108745 -0.0233108,0.104611 0.0449565,0.120229 -0.178505,0.144745l-0.00625831 0.00528225 0.0753868 0.0216457 -0.0121721 0.0152726 0.0741811 0.0549469 0.0103348 -0.00350236 -0.0454733 0.111387 0.0209567 0.00378944 -0.0481718 0.0130334 0.0207845 0.0217031 -0.152726 0.0296265 -0.0194639 -0.0018373 0.0884776 0.0249758 -0.0273299 0.024861 0.045301 0.0069473 0.0273873 0.0136075 -0.0136075 0.0424302 0.0103348 -0.00189472 -0.00344494 0.107195 -0.0134353 0.00459326 -0.103004 0.0555784 0.0091291 0.00895685 0.0856068 0.0433489 0.00172247 0.00660281 -0.0103922 0.186888 -0.0254352 0.00792337 -0.0870422 0.00574157 0.00895685 -0.00849753 0.123386 0.0590808 -0.0192343 -0.00264112 0.00442101 0.173166 0.328131 0 0.0765352 -0.870422 -0.0710807 -0.00941618 0.101224 -0.011598 0.0021818 0.00815303 0.0914058 -0.0397891 -0.0391575 -0.0516167 0.0245739 -0.01533 0.0138946 -0.000976067 0.00953101 -0.00872719 -0.0674061 -0.0598272 0.0485737 0.0119425 0.11064 -0.158123 -0.0559229 -0.00970326 0.116209 -0.154678 -0.0305452 -0.00149281 -0.0718271 -0.00287079 0.00482292 -0.0191194 -0.0234256 -0.00195213 -0.0018373 0.00539708c-0.03577,-0.0288227 0.121894,0.0111961 0.13596,-0.0850901 0.000459326,-0.00321528 0.0572435,-0.12574 0.0591956,-0.128209 0.0199807,-0.0257222 -0.0314638,-0.0334734 -0.039502,-0.059253 -0.00809562,-0.0258371 0.0461048,-0.0131482 0.0719993,-0.0402484 0.0372628,-0.0391575 0.0415116,-0.0929561 0.0250333,-0.133951 -0.00459326,-0.0115406 0.170869,-0.247634 0.118162,-0.299882 -0.159673,-0.158238 0.227022,-0.0974919 0.0470235,-0.162888z"/>
    <path id="_127706176" class="fil2" d="M0.401049 0.0091291l-0.401049 0 0 0.408743 0.0777409 0.0159616 -0.0312342 0.0214161 0.00643056 0.0321528 0.0722864 -0.0058564 -0.0137224 0.0304878 -0.0453584 0.00488034 0.0284208 0.0151578 -0.0459326 0.00688989 0.011598 0.0137798 0.0604588 0.00264112 -0.0310619 0.0135501 0.0629276 0.0119999c-0.0297413,0.0111387 -0.0697027,-0.00918652 -0.104382,0.00763629 -0.0373202,0.0180285 0.00786595,0.0359997 -0.00407652,0.0536837l-0.0440953 0.000172247 0 0.00447843 0.0342198 0.00384685 0.00143539 0.0422006 0.0410522 0.00631573 -0.0387556 0.0148133 0.0506981 0.0236553 -0.0485163 -0.00177989 -0.0112535 0.00390427 0.0486885 0.0663726 0.00700472 -0.00344494 -0.0471383 0.00780854 0.00149281 0.00648798 0.0316935 0.00688989 -0.00666022 0.0107367 0.0407652 0.014641 -0.0442101 0.00269854 0.0972048 0.0199807 -0.00166506 0.00080382c-0.018373,0.0227366 -0.102602,-0.0111961 -0.109377,-0.0126315 0.0029282,0.0111961 0.0215309,0.0206697 0.012287,0.0261816 -0.0091291,0.00545449 -0.022794,0.000746404 -0.012287,0.0170525 0.0109664,0.0169951 -0.00361719,0.0170525 0.0021818,0.0246313 0.00752146,0.00976067 0.0341624,0.00447843 0.0457603,0.0171099l-0.0456455 0.0177989c0.0302007,0.0214735 -0.0579325,0.111559 0.0814729,0.108343l0.00126315 0.00528225 -0.0710807 0.00143539c-0.00643056,0.0142965 0.0353681,0.0409374 -0.060631,0.0494924l0 0.00895685 0.0817026 0.138946 -0.0409948 0.00488034 0.122468 0.0277892c-0.171386,0.0229089 -0.0842863,0.141645 -0.114142,0.211175 -0.0235404,0.0547746 0.158353,0.012574 0.0164209,0.0982957 -0.0146984,0.00889944 0.0226218,0.0261242 -0.0111961,0.0788318 -0.0208993,0.0325547 0.0281337,0.0685544 0.0273299,0.10398 -0.000574157,0.0260093 -0.0478273,0.0275595 -0.0214161,0.0549469 0.00757888,0.00786595 0.070851,0.0411097 0.0521909,0.043636 -0.102315,0.0138372 -0.0145836,-0.0346217 -0.0628128,0.0614922 -0.0294543,0.0586789 0.065052,0.0928412 -0.0495498,0.114774l0 0.233567 0.373719 0c-0.0107367,-0.0190046 0.0286504,-0.176266 0.0447843,-0.194467 0.0296265,-0.0334734 -0.088248,-0.171501 -0.035081,-0.223519 0.0040191,-0.00396169 -0.0177989,-0.133779 -0.0196362,-0.154161 -0.00396169,-0.0435211 -0.0170525,-0.0789466 0.043923,-0.112248 0.0573009,-0.031349 0.0268131,-0.0250907 0.00453584,-0.0478847 -0.0210142,-0.0215883 0.100305,-0.0207271 0.102315,-0.0321528l-0.0706213 -0.00528225 -0.031349 -0.0103922 -0.0345643 -0.0637889 0.0138372 -0.00430618 -0.0118276 -0.0927264 0.0302581 -0.0686118 -0.0133204 -0.00671764 0.0676931 0.00235404 -0.000918652 0.00643056c0.127807,-0.0190046 -0.0417412,-0.0240572 -0.0751572,-0.0529947 -0.0382963,-0.0331289 -0.00338753,-0.0565545 -0.00723438,-0.0961713 -0.000574157,-0.00591382 0.0245165,-0.111903 0.026239,-0.112937 0.0488034,-0.0296839 -0.0937025,-0.163635 -0.00821045,-0.259519 0.0384111,-0.0431192 0.184534,-0.0395594 -0.00999034,-0.0477125 -0.019751,-0.00080382 -0.0190046,-0.0540282 -0.0100478,-0.0806117 0.0171673,-0.0508703 0.0265261,-0.0863533 0.045301,-0.13487 0.0246888,-0.0637889 0.119999,-0.0288801 0.0838844,-0.0561526 -0.232706,-0.000574157 -0.0688989,-0.0986402 -0.14308,-0.17707l0.0353107 0.0010909 0.00895685 -0.0706213 -0.00832528 0.00258371 0.0713103 -0.0203252 0.0144688 0.00964584 0.0321528 -0.0125166 -0.0470235 0.0146984 -0.107884 -0.0850901 0.0372054 -0.0121147 -0.0423728 -0.0666597 -0.00763629 0.00625831 0.0494349 -0.0411097z"/>
    <polygon id="_127707472" class="fil3" points="1.18495,1.83719 1.17582,1.82823 1.16761,1.78218 1.17961,1.77575 1.15687,1.7695 1.18007,1.76393 1.17352,1.7103 1.14493,1.71059 1.1184,1.62487 1.08895,1.62676 1.09078,1.36598 1.07878,1.36615 1.07706,1.33939 1.06564,1.33836 1.0282,1.40703 1.03452,1.42362 1.06805,1.42776 1.06299,1.44797 1.03641,1.44992 1.0305,1.46123 1.04939,1.51112 1.04956,1.52571 1.08694,1.52829 1.09647,1.53759 1.04588,1.63991 0.667056,1.64467 0.655745,1.63979 0.628932,1.63509 0.488321,1.65455 0.502043,1.65168 0.501584,1.72597 0.521507,1.80194 0.516856,1.80934 0.540512,1.80888 0.537239,1.81468 0.532359,1.98331 0.519899,1.98434 0.528684,2.3088 1.13023,2.3088 1.16611,1.93922 1.19763,1.94295 "/>
    <path id="_127707928" class="fil4" d="M2.33338 0.0675209l0 -0.0583918 -0.0820471 0c0.179998,0.0653965 -0.206697,0.00465067 -0.0470235,0.162888 0.0527076,0.0522483 -0.122755,0.288342 -0.118162,0.299882 0.0164783,0.0409948 0.0122295,0.0947934 -0.0250333,0.133951 -0.0258945,0.0271002 -0.0800949,0.0144113 -0.0719993,0.0402484 0.0080382,0.0257797 0.0594827,0.0335308 0.039502,0.059253 -0.00195213,0.00246888 -0.0587363,0.124994 -0.0591956,0.128209 -0.0140669,0.0962862 -0.17173,0.0562674 -0.13596,0.0850901l0.0018373 -0.00539708 0.0234256 0.00195213 -0.00482292 0.0191194 0.0718271 0.00287079 0.0305452 0.00149281 -0.116209 0.154678 0.0559229 0.00970326 -0.11064 0.158123 -0.0485737 -0.0119425 0.0674061 0.0598272 -0.00953101 0.00872719 -0.0138946 0.000976067 -0.0245739 0.01533 0.0391575 0.0516167 -0.0914058 0.0397891 -0.0021818 -0.00815303 -0.101224 0.011598 0.0710807 0.00941618 -0.0765352 0.870422 0.0638463 0c0.100592,-0.219902 0.0717122,-0.381929 0.0842863,-0.605219 0.0118851,-0.210888 0.084114,-0.35747 0.164726,-0.561124 0.141702,-0.358102 0.28082,-0.717295 0.425451,-1.07494z"/>
    <path id="_127707784" class="fil5" d="M1.07551 0.413393l-0.0911188 -0.211118 -0.108516 0.032727 0.0179711 -0.012287 0.12419 0.0516167 -0.0602291 0.0165357 0.0186027 0.0730902 -0.301949 0 0 0.00447843c0.101454,0.00298562 0.273414,-0.018086 0.328073,0.0272151 0.0879609,0.0729754 0.0150429,0.0625257 -0.0165357,0.112592l0.0621812 0.0147558 -0.0493775 -0.00384685 -0.162372 0.326408 0.0164209 0.00200955c0.0297988,0.0126889 0.0426025,-0.0597124 0.0463345,-0.0702769 0.0130334,-0.0368035 0.146582,-0.0513871 0.163692,-0.0113683l0.00040191 0.00895685 -0.0130334 0.000172247 -0.00516742 0.00935876 0.0106793 0.184304 -0.154161 0.00769371 0.00212438 -0.00746404 -0.064076 -0.00752146 0.0104497 -0.00465067 -0.0404781 -0.0263538 -0.0240572 0.0308897 0.268533 0.0318657 0.00281337 -0.0106793 0.0524206 -0.0257797 0.00396169 0.00631573 -0.0286504 -0.253203 0 0.116784 -0.00901427 0 -0.000229663 -0.139348 0.00717697 0.00413393 0.133779 -0.0609755 0.0115406 0.00172247 -0.139003 0.0149281 0.00516742 0.00924393 -0.00884202 -0.220476 -0.00172247 0.121262 -0.00976067 0 0.00177989 -0.143712z"/>
    <path id="_127707688" class="fil6" d="M1.09377 1.88209l0.00252629 -0.0808413 -0.00740663 -0.159788 -0.0249758 -0.00120573 -0.107367 0.162199 -0.0604588 -0.0151578 0.146468 0.0202103 -0.0138372 0.0249184 0.00935876 0.00120573 -0.0083827 0.0213012 -0.0179137 0.000574157 0.0262964 0.0157893 -0.0761907 0.0622961 0.024861 -0.00769371 0.00419135 0.0640185 0.0195213 0.069186 -0.0149855 0.0219328 -0.0985254 0.0172821 -0.00637315 0.00849753 0.0434063 0.00206697 -0.00361719 0.018086c0.0794634,0.00212438 0.102717,0.26061 0.142276,0.151635 0.0314064,-0.0865255 0.021129,-0.299768 0.021129,-0.396513z"/>
    <path id="_127707640" class="fil7" d="M-0 1.13649l0 0.938747c0.114602,-0.0219328 0.0200955,-0.0560952 0.0495498,-0.114774 0.0482292,-0.0961139 -0.039502,-0.0476551 0.0628128,-0.0614922 0.0186601,-0.00252629 -0.044612,-0.03577 -0.0521909,-0.043636 -0.0264112,-0.0273873 0.0208419,-0.0289375 0.0214161,-0.0549469 0.00080382,-0.0354255 -0.0482292,-0.0714252 -0.0273299,-0.10398 0.0338179,-0.0527076 -0.00350236,-0.0699324 0.0111961,-0.0788318 0.141932,-0.0857217 -0.0399613,-0.0435211 -0.0164209,-0.0982957 0.0298562,-0.0695304 -0.0572435,-0.188266 0.114142,-0.211175l-0.122468 -0.0277892 0.0409948 -0.00488034 -0.0817026 -0.138946z"/>
    <polygon id="_127707736" class="fil8" points="1.18495,1.83719 1.19763,1.94295 1.16611,1.93922 1.13023,2.3088 1.26694,2.3088 1.26251,2.13564 1.28175,2.13828 1.15836,2.0792 1.14941,2.08769 1.23645,2.08195 1.26188,2.07403 1.27228,1.88714 1.27055,1.88054 "/>
    <polygon id="_127707376" class="fil9" points="0.628932,1.63509 0.570253,2.30421 0.611937,2.30541 0.651324,2.135 0.651611,2.12731 0.648913,2.12725 0.633984,2.11835 0.666367,1.95397 0.692089,1.95598 0.693295,1.91952 0.680262,1.92486 0.639324,1.86526 0.656721,1.85482 0.661314,1.85493 0.665678,1.84362 0.664243,1.79947 0.693984,1.79803 "/>
    <polygon id="_127707304" class="fil10" points="1.7587,0.0608607 1.5307,0.110353 1.52582,0.106391 1.62561,0.116209 1.64416,0.134353 1.46605,0.329394 1.47415,0.342829 1.47633,0.342944 1.47524,0.365049 1.29926,0.368839 1.53547,0.403977 "/>
    <path id="_127707112" class="fil11" d="M-0 0.646903l0 0.480627c0.0959991,-0.00855494 0.0542004,-0.0351958 0.060631,-0.0494924l0.0710807 -0.00143539 -0.00126315 -0.00528225c-0.139405,0.00321528 -0.0512722,-0.08687 -0.0814729,-0.108343l0.0456455 -0.0177989c-0.011598,-0.0126315 -0.0382389,-0.00734921 -0.0457603,-0.0171099 -0.00579899,-0.00757888 0.00878461,-0.00763629 -0.0021818,-0.0246313 -0.0105071,-0.0163061 0.00315786,-0.011598 0.012287,-0.0170525 0.00924393,-0.00551191 -0.00935876,-0.0149855 -0.012287,-0.0261816 0.00677506,0.00143539 0.0910039,0.0353681 0.109377,0.0126315l0.00166506 -0.00080382 -0.0972048 -0.0199807 0.0442101 -0.00269854 -0.0407652 -0.014641 0.00666022 -0.0107367 -0.0316935 -0.00688989 -0.00149281 -0.00648798 0.0471383 -0.00780854 -0.00700472 0.00344494 -0.0486885 -0.0663726 0.0112535 -0.00390427 0.0485163 0.00177989 -0.0506981 -0.0236553 0.0387556 -0.0148133 -0.0410522 -0.00631573 -0.00143539 -0.0422006 -0.0342198 -0.00384685z"/>
    <path id="_127707160" class="fil12" d="M0.674463 0.368437l0 -0.00447843 -0.00442101 -0.0223921 0.0332437 -0.00740663 -0.0230237 -0.00924393 0.0107942 -0.00907168 -0.0350236 -0.00924393 0.0681525 -0.00269854 -0.000516742 -0.00539708 -0.0702194 -0.00465067 -0.000574157 -0.0903724 0.0617793 -0.00344494 -0.065741 -0.00786595 0.0164209 -0.0613774 -0.0726309 -0.000344494 -0.0308322 -0.0136075 0.0196936 0.155999 -0.012287 0.000976067 0.0244591 0.0188324c-0.0482292,0.0138946 -0.0157893,0.0639611 -0.00924393,0.0873293l-0.0284208 0.0143539 0.0184879 0.0542004 0.0273873 0.00482292 0.0109664 -0.012574 0.14331 -0.00350236 -0.171271 -0.00826786 -0.000861236 -0.00465067 0.0888221 -0.0230811 -0.0797504 -0.0040191 0.000459326 -0.00528225 0.0761333 -0.00200955 0.00470809 -0.0215309z"/>
    <polygon id="_127706992" class="fil13" points="0.984393,0.202276 1.07551,0.413393 1.22238,0.200094 1.2105,0.190448 "/>
    <path id="_127706920" class="fil14" d="M0.612454 0.741409l-0.0267557 -0.00907168 0.00723438 -0.021129 0.163577 -0.00137798 0 -0.00442101 -0.0980661 -0.00114831 -0.027904 -0.0136649 0.0123444 -0.0137224 -0.060631 -0.0108516 0.00355978 -0.00539708 0.0528225 0.000114831 0.0246888 -0.0114257 -0.0238275 -0.0110812 0.0807265 -0.00040191c0.0361145,0.0121147 0.0316935,0.0172247 0.0362867,-0.0040191l-0.17397 -0.00114831 0.000631573 -0.00688989 0.0897982 0.00396169 0.00597124 -0.00396169 -0.0401336 -0.0175118 0.0354255 -0.00602865 -0.0928412 -0.00132056 0.0117702 -0.0207271 0.0435785 -0.00172247 0.00235404 -0.0100478 0.0282485 0.0105645 0.0229089 -0.0105071 0.00310045 0.00493775 0.0319806 0.000459326 0.000459326 -0.00671764 -0.108631 -0.00275595 -0.00177989 -0.00459326 0.0259519 -0.0239998 -0.0594827 -0.00361719 -0.00172247 -0.00608607 0.0604013 -0.00987551 -0.00568416 -0.00711955 0.0375499 -0.0062009 -0.081071 -0.0069473 -0.00275595 -0.00683247 0.0647075 -0.0115406 -0.0770519 -0.0159042 -0.0182582 -0.0211864 0.0226792 0.106564 -0.00241146 0.00637315 -0.0814155 0.0125166 0.00396169 0.017397c0.0862958,0.0287079 0.0683821,-0.00993292 0.0748127,0.0759036l-0.027904 0.00310045 0.0124018 0.00137798 0.00775112 0.0624683 -0.0107942 0.000574157 0.0164783 -0.00103348 0.00200955 0.0347365 0.0109664 0.00172247 0.0259519 -0.0207845z"/>
    <path id="_127706800" class="fil7" d="M-0 0.417872l0 0.224553 0.0440953 -0.000172247c0.0119425,-0.017684 -0.0332437,-0.0356552 0.00407652,-0.0536837 0.0346791,-0.0168228 0.0746404,0.00350236 0.104382,-0.00763629l-0.0629276 -0.0119999 0.0310619 -0.0135501 -0.0604588 -0.00264112 -0.011598 -0.0137798 0.0459326 -0.00688989 -0.0284208 -0.0151578 0.0453584 -0.00488034 0.0137224 -0.0304878 -0.0722864 0.0058564 -0.00643056 -0.0321528 0.0312342 -0.0214161 -0.0777409 -0.0159616z"/>
    <polygon id="_127706704" class="fil15" points="0.684683,0.982211 0.649831,0.973484 0.630138,0.954881 0.643056,0.946671 0.591152,0.934728 0.594884,0.930364 0.644434,0.928872 0.640874,0.913312 0.662176,0.906824 0.686577,0.916412 0.69829,0.910212 0.732682,0.91159 0.763342,0.911819 0.763457,0.903666 0.624166,0.900106 0.671764,0.894652 0.632319,0.881044 0.678195,0.872834 0.578578,0.869217 0.562674,0.903264 0.58943,0.919283 0.547803,0.938058 0.571688,0.953273 0.582827,0.984795 "/>
    <path id="_127706656" class="fil15" d="M1.29685 0.987321l0.0389279 -0.0478847 -0.0259519 -0.00993292 0.0147558 -0.0168802 -0.0331289 -0.00849753 0.00206697 -0.0220476c-0.0314064,-0.00177989 -0.0553488,0.0229089 -0.0740663,0.0249184 -0.0380666,0.00407652 -0.136592,-0.0113109 -0.110296,0.0213012l0.0391575 0.000688989 -0.016019 -0.00981809 0.0403058 -0.00321528 0.0742385 0.00143539 0.0537411 0.0275021 -0.0820471 0.00545449 0.0497794 0.0121721 -0.0196362 0.0083827 0.0308322 0.0069473 -0.113281 0.00258371 -0.000114831 0.00453584 0.130736 0.00235404z"/>
   </g>
   <g>
    <path id="_111451336" class="fil16 str0" d="M1.05042 2.3425c0.0444398,-0.704261 0.230926,-1.47558 0.779591,-2.327"/>
   </g>
   <path class="fil16 str0" d="M0.552167 2.33096c0.043234,-0.786481 0.205491,-1.43568 0.712414,-2.30088"/>
   <path class="fil16 str0" d="M1.05042 2.3425c0.00981809,-0.497737 0.0706213,-2.31965 0.0706213,-2.31965"/>
   <path class="fil16 str0" d="M0.560377 0.0191194c-0.01022,2.30386 -0.01022,2.30386 -0.01022,2.30386"/>
  </g>
 </g>
</svg>
